<?xml version="1.0" standalone="no"?>
<!DOCTYPE svg PUBLIC "-//W3C//DTD SVG 20010904//EN"
 "http://www.w3.org/TR/2001/REC-SVG-20010904/DTD/svg10.dtd">
<svg version="1.0" xmlns="http://www.w3.org/2000/svg"
 width="225.000000pt" height="225.000000pt" viewBox="0 0 225.000000 225.000000"
 preserveAspectRatio="xMidYMid meet">

<g transform="translate(0.000000,225.000000) scale(0.100000,-0.100000)"
fill="#000000" stroke="none">
<path d="M462 1517 l-382 -382 0 -158 0 -157 385 0 385 0 0 -195 0 -195 190 0
190 0 0 350 0 350 -382 0 -383 0 385 385 385 385 -195 0 -195 0 -383 -383z"/>
<path d="M1400 1708 l0 -193 190 190 c105 104 190 191 190 192 0 2 -85 3 -190
3 l-190 0 0 -192z"/>
<path d="M1790 1707 l0 -192 -195 -195 -195 -195 0 -192 0 -193 385 0 385 0 0
192 0 193 -190 -190 -190 -190 0 196 0 197 190 183 190 183 0 198 0 198 -190
0 -190 0 0 -193z"/>
</g>
</svg>
